<?xml version="1.0" encoding="UTF-8"?>
<svg id="Layer_2" xmlns="http://www.w3.org/2000/svg" viewBox="0 0 310.91 85.85">
  <defs>
    <style>
      .cls-1 {
        fill: #266eeb;
      }
    </style>
  </defs>
  <g id="Layer_1-2" data-name="Layer_1">
    <g>
      <path class="cls-1" d="M50.34.93l31.19,83.39h-19.04l-6.31-18.57h-31.19l-6.54,18.57H0L31.54.93h18.8ZM51.39,52.09l-10.51-30.6h-.23l-10.86,30.6h21.61Z"/>
      <path class="cls-1" d="M128.13,16.35h-41.23V.93h65.64v14.48l-44.73,53.49h45.9v15.42h-70.31v-14.48l44.73-53.49Z"/>
      <path class="cls-1" d="M199.9,83.39c-3.78,1.64-8.04,2.45-12.79,2.45-3.74,0-7.26-.55-10.57-1.64-3.31-1.09-6.17-2.7-8.58-4.85-2.41-2.14-4.32-4.75-5.72-7.83-1.4-3.07-2.1-6.6-2.1-10.57,0-2.96.51-5.67,1.52-8.12,1.01-2.45,2.39-4.67,4.15-6.66,1.75-1.99,3.76-3.76,6.01-5.31,2.26-1.56,4.59-2.92,7.01-4.09-2.26-2.72-4.15-5.45-5.66-8.18-1.52-2.72-2.28-5.92-2.28-9.58,0-2.88.6-5.49,1.81-7.83,1.21-2.34,2.82-4.34,4.85-6.02,2.02-1.67,4.34-2.96,6.95-3.85,2.61-.89,5.31-1.34,8.12-1.34,3.19,0,6.17.43,8.94,1.29,2.76.86,5.18,2.12,7.24,3.8,2.06,1.68,3.7,3.76,4.91,6.25,1.21,2.49,1.81,5.37,1.81,8.64,0,4.91-1.42,9.03-4.26,12.38-2.84,3.35-6.37,6.15-10.57,8.41l10.75,13.2c.86-1.56,1.52-3.17,1.99-4.85.47-1.67.82-3.37,1.05-5.08h14.37c-.39,3.74-1.25,7.36-2.57,10.86-1.32,3.5-3.15,6.74-5.49,9.69l16.94,19.74h-20.32l-6.77-8.29c-3.35,3.27-6.91,5.72-10.69,7.36ZM183.25,49.76c-1.4.86-2.65,1.87-3.74,3.04-1.09,1.17-1.97,2.45-2.63,3.85-.66,1.4-.99,2.96-.99,4.67,0,1.48.33,2.9.99,4.26.66,1.36,1.54,2.53,2.63,3.5,1.09.97,2.35,1.75,3.8,2.34,1.44.58,2.94.88,4.5.88,2.96,0,5.55-.68,7.77-2.04,2.22-1.36,4.3-3.13,6.25-5.31l-14.25-17.4c-1.48.62-2.92,1.36-4.32,2.22ZM198.73,13.43c-1.52-1.56-3.29-2.34-5.31-2.34s-3.78.68-5.26,2.04c-1.48,1.36-2.22,3.14-2.22,5.31,0,2.65.7,4.91,2.1,6.77s2.88,3.78,4.44,5.72c2.34-1.48,4.34-3.08,6.01-4.79,1.67-1.71,2.51-4.09,2.51-7.12,0-2.18-.76-4.05-2.28-5.61Z"/>
      <path class="cls-1" d="M262.56,84.33L235.58.93h18.8l18.57,58.63h.23L291.99.93h18.92l-27.68,83.39h-20.67Z"/>
    </g>
  </g>
</svg>