<?xml version="1.0" encoding="UTF-8"?>
<svg id="Layer_2" xmlns="http://www.w3.org/2000/svg" viewBox="0 0 707.72 127.35">
  <defs>
    <style>
      .cls-1 {
        fill: #266eeb;
      }
    </style>
  </defs>
  <g id="Layer_1-2" data-name="Layer_1">
    <g id="YwJzIg.tif">
      <g>
        <path class="cls-1" d="M48.99,108.03c-10.18-.19-20.59-1.69-30.08-7.07C7.11,94.27,1.21,83.86.17,70.63-1.69,46.98,12.18,25.97,34.66,18.11c19.54-6.83,43.54.66,55.91,17.3,9.25,12.45,12.32,26.22,8.69,41.2-3.2,13.18-11.77,21.96-24.29,27-8.16,3.29-16.71,4.36-25.98,4.42ZM27.19,64.01c.37,3.66.57,7.34,1.18,10.96.45,2.65,1.26,5.28,2.23,7.8,3.31,8.52,10.93,13.57,19.9,13.35,9.73-.23,17.3-5.39,20.28-14.18,4.9-14.47,3.36-28.67-2.73-42.4-2.61-5.89-6.88-10.59-13.41-12.45-8.11-2.31-16.3,1.64-21.11,10.07-4.75,8.32-6.01,17.45-6.35,26.86Z"/>
        <path class="cls-1" d="M133.96,56.09c16.33-12.43,24.18-12.38,35.4-.61,3.57-2.4,6.75-5.52,10.58-6.94,10.24-3.82,19.48.81,22.93,11.14,3,8.98,5.6,18.09,8.37,27.14,1.57,5.11,2.98,10.23,8.42,12.96.99.5,1.87,2.72,1.58,3.82-.29,1.08-2.14,2.44-3.33,2.46-9.25.19-18.51.15-27.76.03-1.87-.02-3.65-.71-4.13-2.98-.48-2.29.93-3.39,2.64-4.31,1.03-.55,2.12-.99,3.12-1.58,1.77-1.04,2.72-2.6,2.11-4.64-2.74-9.16-5.4-18.35-8.44-27.41-1.28-3.81-4.14-5.34-7.64-5.04-3.61.31-5.44,2.74-6.43,5.89-.49,1.55-.83,3.23-.83,4.85,0,6.69.16,13.39.22,20.08.03,3.38,1.41,5.94,4.34,7.69,1.82,1.09,3.46,2.4,2.73,4.86-.68,2.28-2.71,2.64-4.67,2.66-7.7.08-15.39.1-23.09.02-2.05-.02-4.24-.38-4.87-2.86-.58-2.31.99-3.55,2.71-4.62.25-.15.49-.32.74-.47,2.24-1.36,3.49-3.25,3.49-5.96-.02-8.52.18-17.04-.02-25.55-.08-3.24-1.67-6.14-5.18-6.96-3.78-.88-7.38.16-9.65,3.3-1.57,2.18-2.99,5.01-3.1,7.6-.31,7.15.09,14.34.24,21.51.06,2.74,1.31,4.81,3.76,6.13.42.23.92.5,1.14.88.76,1.33,2.18,2.9,1.9,4.03-.28,1.18-2.11,2.46-3.49,2.79-2.03.49-4.26.22-6.4.22-5.46.01-10.91.04-16.37-.02-1.34-.01-2.76-.12-4.01-.57-2.68-.97-3.47-4.44-1.05-5.68,5.79-2.96,6.07-8.05,6.16-13.36.09-5.34.1-10.68,0-16.02-.08-4.1-.81-4.95-4.65-6.3-1.77-.62-3.55-1.21-3.75-3.52-.2-2.27,1.35-3.33,3.01-4.19,6.13-3.17,12.26-6.34,18.46-9.36,2.73-1.33,4.54-.12,4.78,2.91.08.97.02,1.94.03,2.91,0,.85,0,1.71,0,3.04Z"/>
        <path class="cls-1" d="M369.63,55.15c2.5-1.96,4.61-3.97,7.04-5.48,8.58-5.34,18.78-3.93,26.7,3.52,11.54,10.84,14,30.27,5.51,43.58-8.1,12.7-25.57,14.7-36.37,4.16-.83-.81-1.59-1.69-2.69-2.88-.2,1.01-.43,1.6-.42,2.19.07,3.88.16,7.76.31,11.64.12,3.32,1.19,6.08,4.64,7.37.62.23,1.19.68,1.68,1.14,2.38,2.28,1.52,5.74-1.69,6.52-1.49.36-3.09.41-4.64.42-6.04.04-12.09.04-18.13,0-1.46,0-2.93-.08-4.37-.28-1.89-.26-3.64-1.25-3.42-3.25.17-1.46,1.18-3.52,2.38-4.05,4.03-1.79,5.28-4.89,5.29-8.85.05-13.98.11-27.96.06-41.94-.01-3.79-1.06-4.62-4.73-5.93-1.33-.48-2.96-1.83-3.23-3.05-.22-1.02,1.04-2.95,2.15-3.58,5.57-3.13,11.27-6.06,17.02-8.86,3.91-1.91,5.76-.82,6.42,3.44.2,1.3.31,2.61.49,4.18ZM397.18,74.2c.33-9.84-3.57-16.17-9.41-17.87-6.1-1.78-12.08.81-15.91,7.62-4.05,7.21-4.24,14.98-1.6,22.75,2.19,6.46,7.48,8.76,13.65,5.88,8.81-4.12,12.7-11.49,13.28-18.37Z"/>
        <path class="cls-1" d="M251.59,56.16c2.37-1.93,4.33-3.63,6.4-5.2,7.61-5.76,17.5-4.36,23.17,3.29,3.97,5.35,5.35,11.74,7.14,17.96,1.85,6.41,3.72,12.81,5.49,19.24.92,3.34,2.63,6.02,5.72,7.68,1.76.94,3,2.44,2.05,4.19-.69,1.27-2.52,2.68-3.87,2.72-8.57.26-17.15.27-25.72.04-1.38-.04-3.35-1.4-3.93-2.67-.86-1.85.51-3.29,2.4-4.3,4.21-2.25,5.16-4.22,4.02-8.8-1.89-7.6-3.93-15.16-6.06-22.69-.49-1.73-1.53-3.32-2.46-4.9-1.44-2.46-3.64-3.81-6.53-3.54-3.13.3-5.24,2.22-6.15,5.07-.78,2.47-1.32,5.11-1.37,7.69-.12,6.3.13,12.61.19,18.92.03,3.46,1.28,6.18,4.41,7.93,1.81,1.01,3.18,2.42,2.57,4.7-.63,2.33-2.68,2.67-4.65,2.68-7.7.07-15.4.07-23.09.02-2.1-.01-4.24-.39-4.86-2.85-.62-2.45,1.02-3.79,2.91-4.78,2.81-1.48,3.98-3.88,4.05-6.9.18-6.98.37-13.96.42-20.95.02-3.28-1.23-5.71-4.84-6.65-1.18-.31-2.82-1.7-2.9-2.69-.09-1.26.87-3.22,1.96-3.83,6.36-3.55,12.84-6.89,19.39-10.09,2.22-1.08,3.7,0,4.12,2.5.16.95.21,1.93.21,2.9,0,.94-.11,1.87-.2,3.29Z"/>
        <path class="cls-1" d="M455.08,106.94c-6.13.25-12.07-.8-17.59-3.36-9.89-4.59-14.85-12.64-15.77-23.34-2.12-24.69,20.99-39.62,44.26-32.59,11.34,3.43,19.68,10.62,23.77,21.79,5.51,15.05-1.53,29.39-16.96,34.6-5.63,1.9-11.69,2.53-17.55,3.74-.05-.28-.09-.57-.14-.85ZM472.76,85.7c-1.17-4.17-1.92-8.52-3.59-12.47-3.18-7.5-7.49-14.32-15.14-18.15-6.63-3.31-12.81-.1-14.26,7.18-2.16,10.86,5.44,27.98,15.06,33.62,3.89,2.28,8.14,2.87,12.24.64,4.15-2.26,5.2-6.25,5.68-10.82Z"/>
        <path class="cls-1" d="M607.88,106.98c-7.31.02-14.27-1.29-20.59-5.24-9.4-5.89-12.73-14.83-12.56-25.3.34-21.89,21.07-34.56,42.13-29.36,12.23,3.02,21.41,10.12,25.84,22.13,5.67,15.37-1.4,29.89-17.07,34.97-5.66,1.83-11.71,2.44-17.59,3.61-.05-.26-.11-.53-.16-.79ZM625.34,84.98c-.9-10.07-5.5-19.38-13.64-26.98-.63-.59-1.4-1.04-2.12-1.55-3.54-2.51-7.36-3.71-11.48-1.73-4.06,1.95-5.48,5.76-5.53,9.87-.15,11.8,4.4,21.72,13.1,29.61,3.9,3.54,8.72,4.9,13.81,2.61,4.56-2.04,5.84-6.15,5.86-11.84Z"/>
        <path class="cls-1" d="M522.29,56.45c0,10.88.01,21.75,0,32.63,0,4.36,1.06,7.93,5.59,9.9,1.09.48,2.27,2.79,1.98,3.87-.35,1.29-2.16,2.93-3.49,3.08-3.95.46-7.97.3-11.96.32-4.39.02-8.77.07-13.16-.08-2.13-.07-4.38-.35-5.01-3.04-.64-2.72,1.22-3.96,3.21-4.83,3.92-1.7,4.56-5.15,4.59-8.66.13-15.34.09-30.68.08-46.03,0-3.87-.99-6.91-5.42-8.12-3.04-.83-3.26-4.5-.45-6.4,2.88-1.94,6-3.54,9.05-5.23,2.96-1.65,5.97-3.22,8.95-4.83,3.72-2.01,5.67-1.13,5.72,3.04.15,11.45.05,22.91.05,34.37.09,0,.19,0,.28,0Z"/>
        <path class="cls-1" d="M562.37,55.85c0,11.26,0,22.52,0,33.78,0,4.05,1.2,7.35,5.33,9.14,1.72.75,3.02,2.23,2.46,4.44-.55,2.18-2.4,2.87-4.23,2.89-8.57.12-17.15.18-25.72-.08-1.34-.04-3.12-1.58-3.81-2.89-.91-1.74.22-3.46,2.05-4.2,4.8-1.95,5.65-5.84,5.63-10.41-.08-15.33-.04-30.67-.05-46,0-3.18-1.1-5.49-4.4-6.73-1.31-.49-3.14-2.25-3.04-3.26.16-1.51,1.51-3.37,2.89-4.2,5.47-3.3,11.11-6.32,16.75-9.32,3.91-2.08,5.82-.88,5.84,3.64.04,11.07.01,22.14.01,33.21.09,0,.19,0,.28,0Z"/>
        <path class="cls-1" d="M332.23,70.57c0,6.31-.01,12.62,0,18.93.01,4.01.94,7.5,5.2,9.19,1.92.76,2.9,2.26,2.46,4.39-.45,2.17-2.12,2.99-4.09,3.04-5.46.13-10.91.13-16.37.14-2.92,0-5.85.06-8.77-.13-2.06-.13-4.1-.57-4.54-3.2-.41-2.42,1.07-3.7,2.93-4.43,3.98-1.55,4.83-4.86,4.9-8.45.16-7.96.11-15.92.13-23.89,0-2.24-1.35-3.34-3.18-4.41-1.34-.78-3.2-2.41-3.09-3.49.14-1.39,1.77-3.09,3.19-3.8,5.03-2.51,10.25-4.65,15.4-6.92,4.44-1.96,5.65-1.27,5.71,3.52.08,6.51.02,13.01.02,19.52.03,0,.07,0,.1,0Z"/>
        <path class="cls-1" d="M675.79,62.83c-17.18-.09-31.26-14.32-31.14-31.47.12-17.55,14.27-31.47,31.88-31.36,17.11.11,31.27,14.4,31.19,31.49-.08,17.43-14.34,31.42-31.92,31.34ZM676.14,5.95c-14.07.07-25.94,11.72-25.56,25.56.42,15.47,12.44,25.38,25.75,25.3,14.07-.08,25.7-11.7,25.38-25.64-.33-14.73-11.92-25.09-25.57-25.21Z"/>
        <path class="cls-1" d="M332.36,28.5c-.89,1.65-1.43,3.66-2.73,4.86-3.46,3.21-7.67,5.18-12.45,5.64-2.86.28-5.15-.82-6.48-3.39-1.29-2.5-.82-4.97,1.06-6.97,3.43-3.66,7.8-5.74,12.75-6.24,4.41-.44,7.37,2.11,7.85,6.09Z"/>
        <path class="cls-1" d="M684.82,36.55c2.57,2.2,4.86,4.1,7.07,6.08.66.59,1.1,1.42,1.63,2.15-.86.49-1.69,1.34-2.57,1.39-3.01.18-6.03.17-9.04.02-1.14-.06-2.24-.71-3.37-1.09.42-1.04.83-2.08,1.43-3.57-1.75-3.28-5.03-4.07-9.12-3.2-.68,1.82-1.11,3.55,1.54,4.54.6.23,1.33,1.46,1.17,2-.17.59-1.27,1.26-2,1.29-3.5.14-7.01.15-10.5,0-.78-.03-1.52-.91-2.28-1.4.48-.65.98-1.29,1.42-1.97.58-.88,1.55-1.78,1.58-2.7.16-5.71.22-11.43.04-17.14-.03-1.04-1.32-2.03-1.99-3.06-.4-.62-1.09-1.34-.99-1.91.09-.53,1.05-1.3,1.62-1.3,8.6.09,17.35-1.04,25.56,2.76,3.18,1.48,5.42,3.72,6,7.27.76,4.65-.87,7-7.19,9.82ZM670.38,27.27s-.07,0-.11,0c.13,1.43.05,2.93.45,4.28.26.85,1.1,1.83,1.92,2.16,2.6,1.04,7.54-.69,8.87-2.88,1.39-2.31.69-5.85-1.59-8.22-2.14-2.22-4.8-2.45-7.51-1.66-2.67.78-1.73,3.28-2.02,5.16-.06.38,0,.77,0,1.16Z"/>
      </g>
    </g>
  </g>
</svg>